<mxfile host="app.diagrams.net" modified="2023-12-15T08:44:14.678Z" agent="Mozilla/5.0 (Macintosh; Intel Mac OS X 10_15_7) AppleWebKit/537.36 (KHTML, like Gecko) Chrome/119.0.0.0 Safari/537.36" etag="0Go68EL2DNWeVW-HSRQz" version="22.1.9" type="github">
  <diagram name="第 1 页" id="0k4TBifSkERZmbdtbySY">
    <mxGraphModel dx="1314" dy="805" grid="0" gridSize="10" guides="1" tooltips="1" connect="1" arrows="1" fold="1" page="1" pageScale="1" pageWidth="827" pageHeight="1169" math="0" shadow="0">
      <root>
        <mxCell id="0" />
        <mxCell id="1" parent="0" />
        <mxCell id="LGNTD50chUgOsU70D988-14" value="" style="rounded=0;whiteSpace=wrap;html=1;" parent="1" vertex="1">
          <mxGeometry x="460" y="750" width="270" height="170" as="geometry" />
        </mxCell>
        <mxCell id="LGNTD50chUgOsU70D988-35" value="" style="rounded=0;whiteSpace=wrap;html=1;" parent="1" vertex="1">
          <mxGeometry x="485" y="770" width="230" height="140" as="geometry" />
        </mxCell>
        <mxCell id="LGNTD50chUgOsU70D988-13" value="" style="rounded=0;whiteSpace=wrap;html=1;" parent="1" vertex="1">
          <mxGeometry x="55" y="750" width="265" height="170" as="geometry" />
        </mxCell>
        <mxCell id="LGNTD50chUgOsU70D988-6" value="" style="rounded=0;whiteSpace=wrap;html=1;" parent="1" vertex="1">
          <mxGeometry x="230" y="460" width="320" height="260" as="geometry" />
        </mxCell>
        <mxCell id="LGNTD50chUgOsU70D988-2" value="" style="rounded=0;whiteSpace=wrap;html=1;" parent="1" vertex="1">
          <mxGeometry x="255" y="480" width="260" height="210" as="geometry" />
        </mxCell>
        <mxCell id="LGNTD50chUgOsU70D988-1" value="Exchange" style="ellipse;whiteSpace=wrap;html=1;" parent="1" vertex="1">
          <mxGeometry x="280" y="620" width="80" height="50" as="geometry" />
        </mxCell>
        <mxCell id="LGNTD50chUgOsU70D988-26" value="" style="edgeStyle=orthogonalEdgeStyle;rounded=0;orthogonalLoop=1;jettySize=auto;html=1;" parent="1" source="LGNTD50chUgOsU70D988-3" target="LGNTD50chUgOsU70D988-5" edge="1">
          <mxGeometry relative="1" as="geometry" />
        </mxCell>
        <mxCell id="LGNTD50chUgOsU70D988-3" value="SelectInto&lt;br&gt;Hashtable" style="ellipse;whiteSpace=wrap;html=1;" parent="1" vertex="1">
          <mxGeometry x="425" y="550" width="80" height="50" as="geometry" />
        </mxCell>
        <mxCell id="LGNTD50chUgOsU70D988-9" style="rounded=0;orthogonalLoop=1;jettySize=auto;html=1;exitX=1;exitY=1;exitDx=0;exitDy=0;entryX=0.5;entryY=0;entryDx=0;entryDy=0;" parent="1" source="LGNTD50chUgOsU70D988-4" target="LGNTD50chUgOsU70D988-3" edge="1">
          <mxGeometry relative="1" as="geometry" />
        </mxCell>
        <mxCell id="LGNTD50chUgOsU70D988-34" value="" style="rounded=0;whiteSpace=wrap;html=1;" parent="1" vertex="1">
          <mxGeometry x="70" y="770" width="230" height="140" as="geometry" />
        </mxCell>
        <mxCell id="LGNTD50chUgOsU70D988-25" style="rounded=0;orthogonalLoop=1;jettySize=auto;html=1;entryX=0.5;entryY=0;entryDx=0;entryDy=0;" parent="1" source="LGNTD50chUgOsU70D988-1" target="LGNTD50chUgOsU70D988-15" edge="1">
          <mxGeometry relative="1" as="geometry" />
        </mxCell>
        <mxCell id="LGNTD50chUgOsU70D988-12" style="rounded=0;orthogonalLoop=1;jettySize=auto;html=1;exitX=0;exitY=1;exitDx=0;exitDy=0;entryX=0.5;entryY=0;entryDx=0;entryDy=0;" parent="1" source="LGNTD50chUgOsU70D988-4" target="LGNTD50chUgOsU70D988-1" edge="1">
          <mxGeometry relative="1" as="geometry" />
        </mxCell>
        <mxCell id="LGNTD50chUgOsU70D988-4" value="HashJoin" style="ellipse;whiteSpace=wrap;html=1;" parent="1" vertex="1">
          <mxGeometry x="345" y="490" width="80" height="50" as="geometry" />
        </mxCell>
        <mxCell id="LGNTD50chUgOsU70D988-27" style="rounded=0;orthogonalLoop=1;jettySize=auto;html=1;exitX=0.5;exitY=1;exitDx=0;exitDy=0;entryX=0.5;entryY=0;entryDx=0;entryDy=0;" parent="1" source="LGNTD50chUgOsU70D988-5" target="LGNTD50chUgOsU70D988-16" edge="1">
          <mxGeometry relative="1" as="geometry" />
        </mxCell>
        <mxCell id="LGNTD50chUgOsU70D988-5" value="Exchange" style="ellipse;whiteSpace=wrap;html=1;" parent="1" vertex="1">
          <mxGeometry x="425" y="620" width="80" height="50" as="geometry" />
        </mxCell>
        <mxCell id="LGNTD50chUgOsU70D988-21" value="" style="edgeStyle=orthogonalEdgeStyle;rounded=0;orthogonalLoop=1;jettySize=auto;html=1;" parent="1" source="LGNTD50chUgOsU70D988-15" target="LGNTD50chUgOsU70D988-17" edge="1">
          <mxGeometry relative="1" as="geometry" />
        </mxCell>
        <mxCell id="LGNTD50chUgOsU70D988-15" value="Exchange" style="ellipse;whiteSpace=wrap;html=1;" parent="1" vertex="1">
          <mxGeometry x="150" y="780" width="80" height="50" as="geometry" />
        </mxCell>
        <mxCell id="LGNTD50chUgOsU70D988-22" value="" style="edgeStyle=orthogonalEdgeStyle;rounded=0;orthogonalLoop=1;jettySize=auto;html=1;" parent="1" source="LGNTD50chUgOsU70D988-16" target="LGNTD50chUgOsU70D988-18" edge="1">
          <mxGeometry relative="1" as="geometry" />
        </mxCell>
        <mxCell id="LGNTD50chUgOsU70D988-16" value="Exchange" style="ellipse;whiteSpace=wrap;html=1;" parent="1" vertex="1">
          <mxGeometry x="560" y="778" width="80" height="50" as="geometry" />
        </mxCell>
        <mxCell id="LGNTD50chUgOsU70D988-17" value="Scan" style="ellipse;whiteSpace=wrap;html=1;" parent="1" vertex="1">
          <mxGeometry x="150" y="852" width="80" height="50" as="geometry" />
        </mxCell>
        <mxCell id="LGNTD50chUgOsU70D988-18" value="Scan" style="ellipse;whiteSpace=wrap;html=1;" parent="1" vertex="1">
          <mxGeometry x="560" y="850" width="80" height="50" as="geometry" />
        </mxCell>
        <mxCell id="LGNTD50chUgOsU70D988-30" value="" style="rounded=0;whiteSpace=wrap;html=1;" parent="1" vertex="1">
          <mxGeometry x="250" y="307.5" width="270" height="120" as="geometry" />
        </mxCell>
        <mxCell id="LGNTD50chUgOsU70D988-33" value="" style="rounded=0;whiteSpace=wrap;html=1;" parent="1" vertex="1">
          <mxGeometry x="270" y="320" width="230" height="85" as="geometry" />
        </mxCell>
        <mxCell id="LGNTD50chUgOsU70D988-32" style="edgeStyle=orthogonalEdgeStyle;rounded=0;orthogonalLoop=1;jettySize=auto;html=1;" parent="1" source="LGNTD50chUgOsU70D988-31" target="LGNTD50chUgOsU70D988-4" edge="1">
          <mxGeometry relative="1" as="geometry" />
        </mxCell>
        <mxCell id="LGNTD50chUgOsU70D988-31" value="gather" style="ellipse;whiteSpace=wrap;html=1;" parent="1" vertex="1">
          <mxGeometry x="345" y="337.5" width="80" height="50" as="geometry" />
        </mxCell>
        <mxCell id="2ma7Ghk2zAE5fmu_fwJY-1" value="Fragment#1" style="text;html=1;align=center;verticalAlign=middle;resizable=0;points=[];autosize=1;strokeColor=none;fillColor=none;" vertex="1" parent="1">
          <mxGeometry x="480" y="770" width="90" height="30" as="geometry" />
        </mxCell>
        <mxCell id="2ma7Ghk2zAE5fmu_fwJY-2" value="Dag#1" style="text;html=1;align=center;verticalAlign=middle;resizable=0;points=[];autosize=1;strokeColor=none;fillColor=none;" vertex="1" parent="1">
          <mxGeometry x="240" y="300" width="60" height="30" as="geometry" />
        </mxCell>
        <mxCell id="2ma7Ghk2zAE5fmu_fwJY-3" value="Dag#2" style="text;html=1;align=center;verticalAlign=middle;resizable=0;points=[];autosize=1;strokeColor=none;fillColor=none;" vertex="1" parent="1">
          <mxGeometry x="230" y="460" width="60" height="30" as="geometry" />
        </mxCell>
        <mxCell id="2ma7Ghk2zAE5fmu_fwJY-4" value="Dag#3" style="text;html=1;align=center;verticalAlign=middle;resizable=0;points=[];autosize=1;strokeColor=none;fillColor=none;" vertex="1" parent="1">
          <mxGeometry x="50" y="750" width="60" height="30" as="geometry" />
        </mxCell>
        <mxCell id="2ma7Ghk2zAE5fmu_fwJY-5" value="Dag#4" style="text;html=1;align=center;verticalAlign=middle;resizable=0;points=[];autosize=1;strokeColor=none;fillColor=none;" vertex="1" parent="1">
          <mxGeometry x="455" y="750" width="60" height="30" as="geometry" />
        </mxCell>
        <mxCell id="2ma7Ghk2zAE5fmu_fwJY-6" value="Fragment#1" style="text;html=1;align=center;verticalAlign=middle;resizable=0;points=[];autosize=1;strokeColor=none;fillColor=none;" vertex="1" parent="1">
          <mxGeometry x="60" y="770" width="90" height="30" as="geometry" />
        </mxCell>
        <mxCell id="2ma7Ghk2zAE5fmu_fwJY-7" value="Fragment#1" style="text;html=1;align=center;verticalAlign=middle;resizable=0;points=[];autosize=1;strokeColor=none;fillColor=none;" vertex="1" parent="1">
          <mxGeometry x="270" y="320" width="90" height="30" as="geometry" />
        </mxCell>
        <mxCell id="2ma7Ghk2zAE5fmu_fwJY-8" value="Fragment#1" style="text;html=1;align=center;verticalAlign=middle;resizable=0;points=[];autosize=1;strokeColor=none;fillColor=none;" vertex="1" parent="1">
          <mxGeometry x="255" y="480" width="90" height="30" as="geometry" />
        </mxCell>
      </root>
    </mxGraphModel>
  </diagram>
</mxfile>
